# Tiled2Unity generated file. Do not modify by hand.
# Wavefront file for 'castle-?-?????_mesh_0004.obj'

# Vertices (Count = 384)
v -1168 -560 0
v -1184 -560 0
v -1184 -544 0
v -1168 -544 0
v -1184 -560 0
v -1200 -560 0
v -1200 -544 0
v -1184 -544 0
v -1200 -560 0
v -1216 -560 0
v -1216 -544 0
v -1200 -544 0
v -1216 -560 0
v -1232 -560 0
v -1232 -544 0
v -1216 -544 0
v -1232 -560 0
v -1248 -560 0
v -1248 -544 0
v -1232 -544 0
v -1248 -560 0
v -1264 -560 0
v -1264 -544 0
v -1248 -544 0
v -1264 -560 0
v -1280 -560 0
v -1280 -544 0
v -1264 -544 0
v -1280 -560 0
v -1296 -560 0
v -1296 -544 0
v -1280 -544 0
v -1296 -560 0
v -1312 -560 0
v -1312 -544 0
v -1296 -544 0
v -1312 -560 0
v -1328 -560 0
v -1328 -544 0
v -1312 -544 0
v -1328 -560 0
v -1344 -560 0
v -1344 -544 0
v -1328 -544 0
v -1344 -560 0
v -1360 -560 0
v -1360 -544 0
v -1344 -544 0
v -1360 -560 0
v -1376 -560 0
v -1376 -544 0
v -1360 -544 0
v -1376 -560 0
v -1392 -560 0
v -1392 -544 0
v -1376 -544 0
v -1392 -560 0
v -1408 -560 0
v -1408 -544 0
v -1392 -544 0
v -1408 -560 0
v -1424 -560 0
v -1424 -544 0
v -1408 -544 0
v -1168 -576 0
v -1184 -576 0
v -1184 -560 0
v -1168 -560 0
v -1184 -576 0
v -1200 -576 0
v -1200 -560 0
v -1184 -560 0
v -1200 -576 0
v -1216 -576 0
v -1216 -560 0
v -1200 -560 0
v -1216 -576 0
v -1232 -576 0
v -1232 -560 0
v -1216 -560 0
v -1232 -576 0
v -1248 -576 0
v -1248 -560 0
v -1232 -560 0
v -1248 -576 0
v -1264 -576 0
v -1264 -560 0
v -1248 -560 0
v -1264 -576 0
v -1280 -576 0
v -1280 -560 0
v -1264 -560 0
v -1280 -576 0
v -1296 -576 0
v -1296 -560 0
v -1280 -560 0
v -1296 -576 0
v -1312 -576 0
v -1312 -560 0
v -1296 -560 0
v -1312 -576 0
v -1328 -576 0
v -1328 -560 0
v -1312 -560 0
v -1328 -576 0
v -1344 -576 0
v -1344 -560 0
v -1328 -560 0
v -1344 -576 0
v -1360 -576 0
v -1360 -560 0
v -1344 -560 0
v -1360 -576 0
v -1376 -576 0
v -1376 -560 0
v -1360 -560 0
v -1376 -576 0
v -1392 -576 0
v -1392 -560 0
v -1376 -560 0
v -1392 -576 0
v -1408 -576 0
v -1408 -560 0
v -1392 -560 0
v -1408 -576 0
v -1424 -576 0
v -1424 -560 0
v -1408 -560 0
v -1168 -592 0
v -1184 -592 0
v -1184 -576 0
v -1168 -576 0
v -1184 -592 0
v -1200 -592 0
v -1200 -576 0
v -1184 -576 0
v -1200 -592 0
v -1216 -592 0
v -1216 -576 0
v -1200 -576 0
v -1216 -592 0
v -1232 -592 0
v -1232 -576 0
v -1216 -576 0
v -1232 -592 0
v -1248 -592 0
v -1248 -576 0
v -1232 -576 0
v -1248 -592 0
v -1264 -592 0
v -1264 -576 0
v -1248 -576 0
v -1264 -592 0
v -1280 -592 0
v -1280 -576 0
v -1264 -576 0
v -1280 -592 0
v -1296 -592 0
v -1296 -576 0
v -1280 -576 0
v -1296 -592 0
v -1312 -592 0
v -1312 -576 0
v -1296 -576 0
v -1312 -592 0
v -1328 -592 0
v -1328 -576 0
v -1312 -576 0
v -1328 -592 0
v -1344 -592 0
v -1344 -576 0
v -1328 -576 0
v -1344 -592 0
v -1360 -592 0
v -1360 -576 0
v -1344 -576 0
v -1360 -592 0
v -1376 -592 0
v -1376 -576 0
v -1360 -576 0
v -1376 -592 0
v -1392 -592 0
v -1392 -576 0
v -1376 -576 0
v -1392 -592 0
v -1408 -592 0
v -1408 -576 0
v -1392 -576 0
v -1408 -592 0
v -1424 -592 0
v -1424 -576 0
v -1408 -576 0
v -1168 -608 0
v -1184 -608 0
v -1184 -592 0
v -1168 -592 0
v -1184 -608 0
v -1200 -608 0
v -1200 -592 0
v -1184 -592 0
v -1200 -608 0
v -1216 -608 0
v -1216 -592 0
v -1200 -592 0
v -1216 -608 0
v -1232 -608 0
v -1232 -592 0
v -1216 -592 0
v -1232 -608 0
v -1248 -608 0
v -1248 -592 0
v -1232 -592 0
v -1248 -608 0
v -1264 -608 0
v -1264 -592 0
v -1248 -592 0
v -1264 -608 0
v -1280 -608 0
v -1280 -592 0
v -1264 -592 0
v -1280 -608 0
v -1296 -608 0
v -1296 -592 0
v -1280 -592 0
v -1296 -608 0
v -1312 -608 0
v -1312 -592 0
v -1296 -592 0
v -1312 -608 0
v -1328 -608 0
v -1328 -592 0
v -1312 -592 0
v -1328 -608 0
v -1344 -608 0
v -1344 -592 0
v -1328 -592 0
v -1344 -608 0
v -1360 -608 0
v -1360 -592 0
v -1344 -592 0
v -1360 -608 0
v -1376 -608 0
v -1376 -592 0
v -1360 -592 0
v -1376 -608 0
v -1392 -608 0
v -1392 -592 0
v -1376 -592 0
v -1392 -608 0
v -1408 -608 0
v -1408 -592 0
v -1392 -592 0
v -1408 -608 0
v -1424 -608 0
v -1424 -592 0
v -1408 -592 0
v -1168 -624 0
v -1184 -624 0
v -1184 -608 0
v -1168 -608 0
v -1184 -624 0
v -1200 -624 0
v -1200 -608 0
v -1184 -608 0
v -1200 -624 0
v -1216 -624 0
v -1216 -608 0
v -1200 -608 0
v -1216 -624 0
v -1232 -624 0
v -1232 -608 0
v -1216 -608 0
v -1232 -624 0
v -1248 -624 0
v -1248 -608 0
v -1232 -608 0
v -1248 -624 0
v -1264 -624 0
v -1264 -608 0
v -1248 -608 0
v -1264 -624 0
v -1280 -624 0
v -1280 -608 0
v -1264 -608 0
v -1280 -624 0
v -1296 -624 0
v -1296 -608 0
v -1280 -608 0
v -1296 -624 0
v -1312 -624 0
v -1312 -608 0
v -1296 -608 0
v -1312 -624 0
v -1328 -624 0
v -1328 -608 0
v -1312 -608 0
v -1328 -624 0
v -1344 -624 0
v -1344 -608 0
v -1328 -608 0
v -1344 -624 0
v -1360 -624 0
v -1360 -608 0
v -1344 -608 0
v -1360 -624 0
v -1376 -624 0
v -1376 -608 0
v -1360 -608 0
v -1376 -624 0
v -1392 -624 0
v -1392 -608 0
v -1376 -608 0
v -1392 -624 0
v -1408 -624 0
v -1408 -608 0
v -1392 -608 0
v -1408 -624 0
v -1424 -624 0
v -1424 -608 0
v -1408 -608 0
v -1168 -640 0
v -1184 -640 0
v -1184 -624 0
v -1168 -624 0
v -1184 -640 0
v -1200 -640 0
v -1200 -624 0
v -1184 -624 0
v -1200 -640 0
v -1216 -640 0
v -1216 -624 0
v -1200 -624 0
v -1216 -640 0
v -1232 -640 0
v -1232 -624 0
v -1216 -624 0
v -1232 -640 0
v -1248 -640 0
v -1248 -624 0
v -1232 -624 0
v -1248 -640 0
v -1264 -640 0
v -1264 -624 0
v -1248 -624 0
v -1264 -640 0
v -1280 -640 0
v -1280 -624 0
v -1264 -624 0
v -1280 -640 0
v -1296 -640 0
v -1296 -624 0
v -1280 -624 0
v -1296 -640 0
v -1312 -640 0
v -1312 -624 0
v -1296 -624 0
v -1312 -640 0
v -1328 -640 0
v -1328 -624 0
v -1312 -624 0
v -1328 -640 0
v -1344 -640 0
v -1344 -624 0
v -1328 -624 0
v -1344 -640 0
v -1360 -640 0
v -1360 -624 0
v -1344 -624 0
v -1360 -640 0
v -1376 -640 0
v -1376 -624 0
v -1360 -624 0
v -1376 -640 0
v -1392 -640 0
v -1392 -624 0
v -1376 -624 0
v -1392 -640 0
v -1408 -640 0
v -1408 -624 0
v -1392 -624 0
v -1408 -640 0
v -1424 -640 0
v -1424 -624 0
v -1408 -624 0

# Texture cooridinates (Count = 10)
vt 0.7083333 0.9166667
vt 0.75 0.9166667
vt 0.75 1
vt 0.7083333 1
vt 0.7916667 0.9166667
vt 0.7916667 1
vt 0 0.9166667
vt 0.04166667 0.9166667
vt 0.04166667 1
vt 0 1

# Normal
vn 0 0 -1

# Mesh description
g castle-?-?????_mesh_0004

# Faces
f 1/1/1 2/2/1 3/3/1 4/4/1
f 5/2/1 6/5/1 7/6/1 8/3/1
f 9/2/1 10/5/1 11/6/1 12/3/1
f 13/2/1 14/5/1 15/6/1 16/3/1
f 17/2/1 18/5/1 19/6/1 20/3/1
f 21/2/1 22/5/1 23/6/1 24/3/1
f 25/2/1 26/5/1 27/6/1 28/3/1
f 29/2/1 30/5/1 31/6/1 32/3/1
f 33/2/1 34/5/1 35/6/1 36/3/1
f 37/2/1 38/5/1 39/6/1 40/3/1
f 41/2/1 42/5/1 43/6/1 44/3/1
f 45/2/1 46/5/1 47/6/1 48/3/1
f 49/2/1 50/5/1 51/6/1 52/3/1
f 53/2/1 54/5/1 55/6/1 56/3/1
f 57/2/1 58/5/1 59/6/1 60/3/1
f 61/2/1 62/5/1 63/6/1 64/3/1
f 65/7/1 66/8/1 67/9/1 68/10/1
f 69/7/1 70/8/1 71/9/1 72/10/1
f 73/7/1 74/8/1 75/9/1 76/10/1
f 77/7/1 78/8/1 79/9/1 80/10/1
f 81/7/1 82/8/1 83/9/1 84/10/1
f 85/7/1 86/8/1 87/9/1 88/10/1
f 89/7/1 90/8/1 91/9/1 92/10/1
f 93/7/1 94/8/1 95/9/1 96/10/1
f 97/7/1 98/8/1 99/9/1 100/10/1
f 101/7/1 102/8/1 103/9/1 104/10/1
f 105/7/1 106/8/1 107/9/1 108/10/1
f 109/7/1 110/8/1 111/9/1 112/10/1
f 113/7/1 114/8/1 115/9/1 116/10/1
f 117/7/1 118/8/1 119/9/1 120/10/1
f 121/7/1 122/8/1 123/9/1 124/10/1
f 125/7/1 126/8/1 127/9/1 128/10/1
f 129/7/1 130/8/1 131/9/1 132/10/1
f 133/7/1 134/8/1 135/9/1 136/10/1
f 137/7/1 138/8/1 139/9/1 140/10/1
f 141/7/1 142/8/1 143/9/1 144/10/1
f 145/7/1 146/8/1 147/9/1 148/10/1
f 149/7/1 150/8/1 151/9/1 152/10/1
f 153/7/1 154/8/1 155/9/1 156/10/1
f 157/7/1 158/8/1 159/9/1 160/10/1
f 161/7/1 162/8/1 163/9/1 164/10/1
f 165/7/1 166/8/1 167/9/1 168/10/1
f 169/7/1 170/8/1 171/9/1 172/10/1
f 173/7/1 174/8/1 175/9/1 176/10/1
f 177/7/1 178/8/1 179/9/1 180/10/1
f 181/7/1 182/8/1 183/9/1 184/10/1
f 185/7/1 186/8/1 187/9/1 188/10/1
f 189/7/1 190/8/1 191/9/1 192/10/1
f 193/7/1 194/8/1 195/9/1 196/10/1
f 197/7/1 198/8/1 199/9/1 200/10/1
f 201/7/1 202/8/1 203/9/1 204/10/1
f 205/7/1 206/8/1 207/9/1 208/10/1
f 209/7/1 210/8/1 211/9/1 212/10/1
f 213/7/1 214/8/1 215/9/1 216/10/1
f 217/7/1 218/8/1 219/9/1 220/10/1
f 221/7/1 222/8/1 223/9/1 224/10/1
f 225/7/1 226/8/1 227/9/1 228/10/1
f 229/7/1 230/8/1 231/9/1 232/10/1
f 233/7/1 234/8/1 235/9/1 236/10/1
f 237/7/1 238/8/1 239/9/1 240/10/1
f 241/7/1 242/8/1 243/9/1 244/10/1
f 245/7/1 246/8/1 247/9/1 248/10/1
f 249/7/1 250/8/1 251/9/1 252/10/1
f 253/7/1 254/8/1 255/9/1 256/10/1
f 257/7/1 258/8/1 259/9/1 260/10/1
f 261/7/1 262/8/1 263/9/1 264/10/1
f 265/7/1 266/8/1 267/9/1 268/10/1
f 269/7/1 270/8/1 271/9/1 272/10/1
f 273/7/1 274/8/1 275/9/1 276/10/1
f 277/7/1 278/8/1 279/9/1 280/10/1
f 281/7/1 282/8/1 283/9/1 284/10/1
f 285/7/1 286/8/1 287/9/1 288/10/1
f 289/7/1 290/8/1 291/9/1 292/10/1
f 293/7/1 294/8/1 295/9/1 296/10/1
f 297/7/1 298/8/1 299/9/1 300/10/1
f 301/7/1 302/8/1 303/9/1 304/10/1
f 305/7/1 306/8/1 307/9/1 308/10/1
f 309/7/1 310/8/1 311/9/1 312/10/1
f 313/7/1 314/8/1 315/9/1 316/10/1
f 317/7/1 318/8/1 319/9/1 320/10/1
f 321/7/1 322/8/1 323/9/1 324/10/1
f 325/7/1 326/8/1 327/9/1 328/10/1
f 329/7/1 330/8/1 331/9/1 332/10/1
f 333/7/1 334/8/1 335/9/1 336/10/1
f 337/7/1 338/8/1 339/9/1 340/10/1
f 341/7/1 342/8/1 343/9/1 344/10/1
f 345/7/1 346/8/1 347/9/1 348/10/1
f 349/7/1 350/8/1 351/9/1 352/10/1
f 353/7/1 354/8/1 355/9/1 356/10/1
f 357/7/1 358/8/1 359/9/1 360/10/1
f 361/7/1 362/8/1 363/9/1 364/10/1
f 365/7/1 366/8/1 367/9/1 368/10/1
f 369/7/1 370/8/1 371/9/1 372/10/1
f 373/7/1 374/8/1 375/9/1 376/10/1
f 377/7/1 378/8/1 379/9/1 380/10/1
f 381/7/1 382/8/1 383/9/1 384/10/1

