# Tiled2Unity generated file. Do not modify by hand.
# Wavefront file for 'castle_mesh_0007.obj'

# Vertices (Count = 40)
v -400 -368 -0.2804878
v -416 -368 -0.2804878
v -416 -352 -0.2804878
v -400 -352 -0.2804878
v -624 -368 -0.2804878
v -640 -368 -0.2804878
v -640 -352 -0.2804878
v -624 -352 -0.2804878
v -944 -368 -0.2804878
v -960 -368 -0.2804878
v -960 -352 -0.2804878
v -944 -352 -0.2804878
v -400 -384 -0.2926829
v -416 -384 -0.2926829
v -416 -368 -0.2926829
v -400 -368 -0.2926829
v -624 -384 -0.2926829
v -640 -384 -0.2926829
v -640 -368 -0.2926829
v -624 -368 -0.2926829
v -944 -384 -0.2926829
v -960 -384 -0.2926829
v -960 -368 -0.2926829
v -944 -368 -0.2926829
v -624 -512 -0.3902439
v -640 -512 -0.3902439
v -640 -496 -0.3902439
v -624 -496 -0.3902439
v -208 -528 -0.402439
v -224 -528 -0.402439
v -224 -512 -0.402439
v -208 -512 -0.402439
v -624 -528 -0.402439
v -640 -528 -0.402439
v -640 -512 -0.402439
v -624 -512 -0.402439
v -208 -544 -0.4146341
v -224 -544 -0.4146341
v -224 -528 -0.4146341
v -208 -528 -0.4146341

# Texture cooridinates (Count = 4)
vt 0.06060606 0.8461539
vt 0.09090909 0.8461539
vt 0.09090909 0.9230769
vt 0.06060606 0.9230769

# Normal
vn 0 0 -1

# Mesh description
g castle_mesh_0007

# Faces
f 1/1/1 2/2/1 3/3/1 4/4/1
f 5/1/1 6/2/1 7/3/1 8/4/1
f 9/1/1 10/2/1 11/3/1 12/4/1
f 13/1/1 14/2/1 15/3/1 16/4/1
f 17/1/1 18/2/1 19/3/1 20/4/1
f 21/1/1 22/2/1 23/3/1 24/4/1
f 25/1/1 26/2/1 27/3/1 28/4/1
f 29/1/1 30/2/1 31/3/1 32/4/1
f 33/1/1 34/2/1 35/3/1 36/4/1
f 37/1/1 38/2/1 39/3/1 40/4/1

